<svg width="93" height="120" viewBox="0 0 93 120" fill="none" xmlns="http://www.w3.org/2000/svg">
<path d="M47 118.5C33 118.5 2 111.9 2 77.1C2 36.4 47 2 47 2C47 2 91.2 37.1 91.2 77.1C91.2 111.9 62 118.5 47 118.5Z" stroke="#FBFBFB" stroke-width="3" stroke-miterlimit="10"/>
<path d="M76.2999 57.2002H35.7V82.1002H76.2999V57.2002Z" stroke="#FBFBFB" stroke-width="2" stroke-miterlimit="10"/>
<path d="M75.6 83H35V86.9H75.6V83Z" stroke="#FBFBFB" stroke-width="2" stroke-miterlimit="10"/>
<path d="M75.3001 90.7C75.3001 94.6 72.1001 97.8 68.2001 97.8C64.3001 97.8 61.1001 94.6 61.1001 90.7C61.1001 89.3 61.8001 87.6 62.1001 87.1L74.3001 87C74.7001 87.6 75.3001 89.2 75.3001 90.7Z" stroke="#FBFBFB" stroke-width="2" stroke-miterlimit="10"/>
<path d="M34.9999 85.9H21.6999H19.2999C18.7999 85.9 16.9999 85.6 16.8999 84.4V68.5C16.8999 63.3 18.3999 61.4 22.3999 61C25.4999 60.7 34.7999 61 34.7999 61V85.9H34.9999Z" stroke="#FBFBFB" stroke-width="2" stroke-miterlimit="10"/>
<path d="M31.3 73.6001H22C22 69.9001 21.8 66.9001 25.5 66.9001H31.3V73.6001Z" stroke="#FBFBFB" stroke-miterlimit="10"/>
<path d="M34.6001 90.5001C34.6001 94.6001 31.2001 98.0001 27.1001 98.0001C23.0001 98.0001 19.6001 94.8001 19.6001 90.5001C19.6001 88.9001 20.4001 87.2001 21.5001 85.9001H32.5001C33.3001 86.5001 34.6001 88.3001 34.6001 90.5001Z" stroke="#FBFBFB" stroke-width="2" stroke-miterlimit="10"/>
<path d="M27.1999 94.6002C29.2986 94.6002 30.9999 92.8989 30.9999 90.8002C30.9999 88.7016 29.2986 87.0002 27.1999 87.0002C25.1012 87.0002 23.3999 88.7016 23.3999 90.8002C23.3999 92.8989 25.1012 94.6002 27.1999 94.6002Z" stroke="white" stroke-miterlimit="10"/>
<path d="M68.0998 94.5001C70.1985 94.5001 71.8998 92.7988 71.8998 90.7001C71.8998 88.6015 70.1985 86.9001 68.0998 86.9001C66.0011 86.9001 64.2998 88.6015 64.2998 90.7001C64.2998 92.7988 66.0011 94.5001 68.0998 94.5001Z" stroke="#FDFDFD" stroke-miterlimit="10"/>
</svg>
