<svg width="93" height="120" viewBox="0 0 93 120" fill="none" xmlns="http://www.w3.org/2000/svg">
<path d="M47 118.5C33 118.5 2 111.9 2 77.1C2 36.4 47 2 47 2C47 2 91.2 37.1 91.2 77.1C91.1 111.9 62 118.5 47 118.5Z" stroke="white" stroke-width="3" stroke-miterlimit="10"/>
<path d="M56.5998 87.9999C65.8782 87.9999 73.3998 80.4783 73.3998 71.1999C73.3998 61.9215 65.8782 54.3999 56.5998 54.3999C47.3214 54.3999 39.7998 61.9215 39.7998 71.1999C39.7998 80.4783 47.3214 87.9999 56.5998 87.9999Z" stroke="white" stroke-width="2" stroke-miterlimit="10"/>
<path d="M56.6 85.7999C64.6634 85.7999 71.2 79.2632 71.2 71.1999C71.2 63.1365 64.6634 56.5999 56.6 56.5999C48.5366 56.5999 42 63.1365 42 71.1999C42 79.2632 48.5366 85.7999 56.6 85.7999Z" stroke="white" stroke-miterlimit="10"/>
<path d="M23.4 102.5L40.9 87.9999C42.4 86.7999 42.5 84.5999 41.3 82.9999C40.1 81.4999 37.8 81.1999 36.4 82.3999L18 96.1999C16.8 98.7999 20.9 103.4 23.4 102.5Z" stroke="white" stroke-width="2" stroke-miterlimit="10"/>
<path d="M25.1999 101.1L26.2999 100.2C23.3999 99.5999 21.0999 96.5999 20.9999 93.8999L19.8999 94.6999C19.0999 96.9999 23.0999 101.6 25.1999 101.1Z" fill="#FDFDFD"/>
<path d="M27.5 99.4L28.1 98.8C24.6 97.1 23.5 95.4 23 92.5L22.3 93C22.2 96.2 25 98.8 27.5 99.4Z" fill="#FDFDFD"/>
<path d="M44.9998 83.1L42.3998 85.5L39.2998 81.9L41.8998 79.5L44.9998 83.1Z" fill="#FDFDFD"/>
<path d="M46.6001 64.3C47.1001 63.2 47.9001 62.2 48.9001 61.3C49.9001 60.5 51.0001 59.8 52.2001 59.3C53.4001 58.9 54.7001 58.5 55.9001 58.5C56.5001 58.4 57.1001 58.5 57.8001 58.5C58.4001 58.6 59.0001 58.7 59.6001 58.8C59.0001 58.9 58.4001 58.9 57.8001 59L56.9001 59.2H56.5001C56.3001 59.2 56.2001 59.2 56.0001 59.3C55.7001 59.3 55.4001 59.4 55.1001 59.5C54.8001 59.5 54.5001 59.6 54.2001 59.7C53.6001 59.8 53.0001 60 52.5001 60.2C51.4001 60.6 50.3001 61.2 49.3001 61.8C48.4001 62.6 47.5001 63.4 46.6001 64.3Z" fill="white"/>
</svg>
