<svg width="93" height="120" viewBox="0 0 93 120" fill="none" xmlns="http://www.w3.org/2000/svg">
<path d="M47 118.5C33 118.5 2 111.9 2 77.1C2 36.4 47 2 47 2C47 2 91.2 37.1 91.2 77.1C91.2 111.9 62 118.5 47 118.5Z" stroke="white" stroke-width="3" stroke-miterlimit="10"/>
<path d="M12.2 77.6001C12.2 77.6001 20.9 79.7001 21.4 80.4001C21.9 81.1001 25.9 86.0001 25.9 86.0001" stroke="white" stroke-width="2" stroke-miterlimit="10" stroke-linecap="round" stroke-linejoin="round"/>
<path d="M22.7 60.5C22.7 60.5 31.1 68.1 32.4 68.6C33.6999 69.1 38.6999 69.2 38.6999 69.2" stroke="white" stroke-width="2" stroke-miterlimit="10" stroke-linecap="round" stroke-linejoin="round"/>
<path d="M70.4999 60.5C70.4999 60.5 60.5999 67.8 59.8999 68C59.1999 68.2 53.6999 66.5 49.7999 66.6C45.7999 66.7 41.4999 66.8 39.5999 68.5C37.6999 70.2 33.4999 74.5 33.5999 75.8C33.6999 77.1 33.9999 79.5 37.9999 77.6C41.9999 75.7 44.4999 72.6 45.8999 73.3C47.2999 74 64.4999 84.7 65.4999 86C66.4999 87.3 65.6999 92.2 61.5999 90.3L51.7999 84.3L61.5999 90.3C61.5999 90.3 63.0999 95.2 57.7999 94.3L49.2999 89.6L57.6999 94.2C57.6999 94.2 58.4999 98.5 53.9999 98L47.0999 94.6L53.9999 98C53.9999 98 51.3999 102.4 42.3999 98.9" stroke="white" stroke-width="2" stroke-miterlimit="10" stroke-linecap="round" stroke-linejoin="round"/>
<path d="M37.6001 97.9C37.6001 97.9 32.6001 102.1 32.4001 96.1C32.4001 96.1 26.9001 99.2 28.0001 93.3C28.0001 93.3 22.9001 94.6 24.1001 90.1C25.4001 85.6 28.5001 84.5 29.9001 85.1C31.2001 85.7 31.7001 87.6 31.7001 87.6L28.0001 93.3L31.7001 87.6C31.7001 87.6 33.9001 84.2 36.2001 85.5C38.6001 86.8 36.9001 89.7 36.9001 89.7L32.3001 96.1L36.9001 89.7C36.9001 89.7 38.4001 88.1 40.1001 89.4C41.8001 90.7 40.7001 92.9 40.7001 92.9L37.6001 97.9ZM37.6001 97.9L40.8001 92.9C40.8001 92.9 44.6001 93 43.3001 96.5C41.7001 101.2 37.8001 102.3 37.6001 97.9Z" stroke="white" stroke-width="2" stroke-miterlimit="10" stroke-linejoin="round"/>
<path d="M81.0001 77.6001C81.0001 77.6001 72.1 79.2001 71.3 80.0001C70.5 80.7001 65.8 86.0001 65.8 86.0001" stroke="white" stroke-width="2" stroke-miterlimit="10" stroke-linecap="round" stroke-linejoin="round"/>
</svg>
