<svg width="93" height="120" viewBox="0 0 93 120" fill="none" xmlns="http://www.w3.org/2000/svg">
<path d="M47 118.5C33 118.5 2 111.9 2 77.1C2 36.4 47 2 47 2C47 2 91.2 37.1 91.2 77.1C91.2 111.9 62 118.5 47 118.5Z" stroke="white" stroke-width="3" stroke-miterlimit="10"/>
<path d="M37.4 75.9002L45.4 83.3002L55.8 69.0002" stroke="white" stroke-width="3" stroke-miterlimit="10" stroke-linecap="round" stroke-linejoin="round"/>
<path d="M46.6 91.7002C55.1604 91.7002 62.1 84.7606 62.1 76.2002C62.1 67.6398 55.1604 60.7002 46.6 60.7002C38.0396 60.7002 31.1 67.6398 31.1 76.2002C31.1 84.7606 38.0396 91.7002 46.6 91.7002Z" stroke="white" stroke-width="2" stroke-miterlimit="10"/>
<path d="M46.6 48.1001L52.1 55.8001L60.6 51.8001L61.5 61.3001L70.9 62.1001L67 70.7001L74.7 76.2001L67 81.6001L70.9 90.2001L61.5 91.1001L60.6 100.5L52.1 96.5001L46.6 104.3L41.1 96.5001L32.6 100.5L31.7 91.1001L22.3 90.2001L26.2 81.6001L18.5 76.2001L26.2 70.7001L22.3 62.1001L31.7 61.3001L32.6 51.8001L41.1 55.8001L46.6 48.1001Z" stroke="white" stroke-width="2" stroke-miterlimit="10" stroke-linecap="round" stroke-linejoin="round"/>
</svg>
